  <svg width="229" height="253" viewBox="0 0 229 203" fill="none" xmlns="http://www.w3.org/2000/svg">
                <g id="ghosts">
                <g id="body">
                <path id="body_2" d="M223.574 34.7893C213.072 7.30945 181.14 -7.89216 153.472 4.196C118.891 19.3049 127.187 57.1923 109.767 83.9453C109.469 82.1134 109.172 80.2816 108.832 78.4605C103.643 50.661 85.3201 21.4258 52.6506 26.898C-17.9711 38.7277 -8.70364 158.765 28.8532 198.457C30.3631 201.539 33.8207 203.029 37.4541 201.906C41.113 200.775 43.1418 197.757 44.4149 194.391C46.0968 198.761 49.0718 202.546 54.4418 202.089C59.269 201.678 61.8324 198.306 63.171 194.291C64.0398 197.694 66.5012 200.5 70.6099 201.177C76.1502 202.088 79.8191 198.577 82.3415 194.272C83.3077 197.239 85.158 199.815 88.3616 200.987C93.0167 202.689 98.0461 200.551 99.6352 195.981C99.7217 195.732 99.7472 195.495 99.7271 195.272C102.404 188.199 104.675 180.977 106.513 173.634C106.736 173.728 106.974 173.809 107.257 173.825C142.121 175.772 183.285 156.723 204.26 129.005C222.926 104.338 235.03 64.7665 223.574 34.7893ZM95.0092 195.548C94.9409 195.722 94.9518 195.87 94.9291 196.031C92.2655 198.391 87.9783 197.026 86.2863 193.425C85.3602 191.453 85.2937 189.369 85.4012 187.226C85.5159 184.962 82.2777 184.762 81.5893 186.715C80.574 189.598 79.483 193.051 77.232 195.254C71.8156 200.552 64.0234 196.186 65.5906 187.832C65.7454 187.008 65.1034 186.561 64.4778 186.589C64.4823 186.493 64.4951 186.388 64.4978 186.293C64.5852 183.893 60.9436 183.946 60.7579 186.293C60.3599 191.335 56.8376 202.094 49.8668 196.365C47.2151 194.185 46.737 190.583 46.0713 187.429C45.7408 185.86 43.0881 185.798 42.8022 187.429C42.4443 189.476 42.1138 191.481 41.3188 193.421C41.0884 194.581 40.5675 195.588 39.758 196.444C38.0451 199.453 35.1721 199.639 31.1635 197.06C-1.58256 158.53 -15.7892 37.4704 55.9953 30.6698C128.506 23.7999 109.724 157.668 95.0092 195.548ZM200.598 126.55C180.305 153.087 141.031 171.059 107.454 169.702C113.56 143.043 114.3 115.066 110.391 88.0269C125.304 69.7064 122.134 45.4184 134.043 25.8632C155.252 -8.96211 206.396 1.05193 219.622 36.7166C230.282 65.4645 218.562 103.06 200.598 126.55Z" fill="black"/>
                </g>
                <path id="eye-left2" d="M180.057 30.1142C180.024 29.2162 178.869 28.82 178.278 29.2856C178.02 29.236 177.738 29.2261 177.433 29.2784C169.195 30.6906 157.827 34.4444 152.544 41.3611C148.086 47.199 148.986 55.8576 155.083 60.2886C171.488 72.2102 180.451 40.7721 180.057 30.1142Z" fill="black"/>
                <path id="eye-right2" d="M211.88 59.3601C210.366 48.8174 204.085 39.7049 195.015 34.0985C194.052 33.5041 193.163 33.8058 192.598 34.438C192.289 34.5029 192.005 34.674 191.821 34.9856C186.266 44.4025 181.7 57.6561 185.147 68.5662C187.515 76.0576 195.279 82.4421 203.544 79.7538C211.964 77.0159 212.943 66.7659 211.88 59.3601Z" fill="black"/>
                <path id="eye-right1" d="M67.8507 50.3962C67.5566 50.2431 67.2834 50.2134 67.0248 50.2296C66.2353 49.1957 64.4195 48.857 63.4433 50.2773C54.664 63.049 47.9281 108.673 76.3341 102.634C103.919 96.7711 82.8851 58.2325 67.8507 50.3962Z" fill="black"/>
                <path id="eye-left1" d="M49.234 52.7063C49.0782 51.7624 48.041 51.5913 47.3307 51.9714C46.7525 51.5985 46.0149 51.4877 45.2363 51.9606C35.6183 57.8083 24.7327 59.5312 20.0803 70.9853C17.0416 78.4677 18.0323 88.3349 25.932 92.4715C46.2963 103.133 51.1007 64.019 49.234 52.7063Z" fill="black"/>
                <path id="mouth-left" d="M54.9918 109.831C46.1008 106.488 35.6637 108.306 29.5742 113.903C27.1917 115.123 25.0981 116.57 24.6647 118.856C24.1566 121.536 26.1722 123.744 29.7497 124.259C36.4774 125.227 41.0065 118.537 47.4503 119.404C52.3153 120.058 56.0197 125.784 61.6422 124.039C71.6956 120.917 59.8173 111.646 54.9918 109.831Z" fill="black"/>
                <path id="mouth-right" d="M162.509 95.0918C167.485 97.9985 176.671 96.203 179.756 91.4571C179.781 91.4343 179.81 91.4251 179.834 91.3988C181.175 89.8998 181.26 88.0882 179.924 86.5225C178.101 84.3869 174.905 84.5551 172.275 85.0237C171.202 85.2144 170.17 85.5289 169.072 85.5925C165.806 85.7806 164.188 83.2834 162.696 80.992C162.054 80.0054 161.557 78.9841 160.448 78.3403C158.784 77.3745 156.364 77.4373 155.154 79.0286C151.519 83.8124 158.299 92.6326 162.509 95.0918Z" fill="black"/>
                <path id="heart" d="M111.691 44.571C111.377 44.8467 110.964 45 110.536 45C110.107 45 109.693 44.8467 109.38 44.571L108.492 43.8143C101.229 37.5311 97.0355 33.449 97.0355 28.3596C97.0355 24.2082 99.822 21 104.191 21C105.402 21.0065 106.596 21.2611 107.692 21.746C108.788 22.2309 109.759 22.9347 110.538 23.8085C111.316 22.9348 112.286 22.2311 113.381 21.7461C114.476 21.2611 115.67 21.0066 116.88 21C121.255 21 124.035 24.1975 124.035 28.3596C124.035 33.4383 119.842 37.5205 112.579 43.8143L111.691 44.571Z" fill="#FF6584"/>
                <path id="heart_2" d="M77.9418 20.6604C77.6861 20.8786 77.3496 21 77 21C76.6505 21 76.3139 20.8786 76.0582 20.6604L75.3352 20.0613C69.4172 15.0872 66 11.8554 66 7.82634C66 4.53979 68.2705 2 71.8305 2C72.8169 2.00516 73.7903 2.20668 74.6833 2.59059C75.5763 2.97449 76.3676 3.5316 77.0023 4.22338C77.6361 3.5317 78.4266 2.97458 79.3188 2.59066C80.2111 2.20673 81.1838 2.0052 82.1696 2C85.7342 2 88 4.53136 88 7.82634C88 11.847 84.5828 15.0787 78.6648 20.0613L77.9418 20.6604Z" fill="#FF6584"/>
                </g>
                </svg>
                