<?xml version="1.0" standalone="no"?>
<!DOCTYPE svg PUBLIC "-//W3C//DTD SVG 20010904//EN"
 "http://www.w3.org/TR/2001/REC-SVG-20010904/DTD/svg10.dtd">
<svg version="1.0" xmlns="http://www.w3.org/2000/svg"
 width="596.000000pt" height="292.000000pt" viewBox="0 0 596.000000 292.000000"
 preserveAspectRatio="xMidYMid meet">

<g transform="translate(0.000000,292.000000) scale(0.100000,-0.100000)"
fill="#000000" stroke="none">
<path d="M5490 2726 c-31 -11 -42 -25 -102 -141 -37 -72 -81 -165 -98 -208
-29 -74 -135 -427 -205 -682 -18 -66 -45 -160 -60 -210 -34 -115 -30 -161 21
-262 41 -79 111 -153 146 -153 35 0 65 49 126 203 72 183 75 191 151 482 104
395 161 700 161 860 0 89 -3 95 -43 113 -34 15 -51 14 -97 -2z"/>
<path d="M4111 2679 c-24 -5 -54 -15 -67 -24 -35 -22 -114 -163 -114 -202 0
-46 85 -208 129 -244 85 -70 107 -54 187 141 20 47 27 217 11 272 -7 25 -70
70 -94 67 -4 -1 -28 -5 -52 -10z"/>
<path d="M1751 2625 c-151 -33 -242 -75 -353 -164 -72 -58 -151 -149 -183
-212 -26 -49 -84 -213 -104 -294 -38 -152 -52 -261 -61 -487 -11 -271 -14
-282 -116 -377 -103 -97 -193 -134 -407 -166 -45 -7 -77 -36 -77 -70 0 -38 23
-47 265 -101 367 -82 634 -119 815 -111 284 12 553 103 797 269 157 107 282
226 335 321 12 20 24 37 27 37 3 -1 21 -24 39 -53 34 -54 107 -117 149 -129
13 -3 48 1 78 9 31 9 58 14 60 11 3 -2 -8 -45 -24 -94 -16 -49 -40 -125 -52
-169 -28 -96 -116 -234 -179 -283 -37 -27 -52 -32 -98 -32 -43 0 -60 5 -84 25
-39 33 -76 42 -95 22 -30 -30 -11 -129 39 -200 12 -17 67 -51 151 -93 107 -53
139 -65 168 -61 44 6 139 50 179 84 36 30 128 159 163 229 36 71 141 379 237
697 125 412 180 693 180 921 l0 126 -32 20 c-18 11 -40 20 -48 20 -30 0 -90
-21 -105 -37 -15 -14 -19 -13 -48 15 -53 50 -94 66 -172 66 -121 -1 -256 -73
-386 -207 -38 -39 -70 -69 -72 -66 -2 2 -12 24 -23 49 -28 66 -103 177 -163
242 -159 174 -362 259 -615 257 -66 0 -150 -7 -185 -14z m345 -251 c156 -32
256 -98 350 -230 95 -134 129 -258 121 -444 -6 -143 -28 -210 -108 -330 -99
-148 -275 -298 -457 -389 -83 -42 -244 -95 -368 -123 -81 -17 -134 -21 -289
-22 -104 -1 -212 3 -239 7 l-49 9 67 60 c96 86 132 156 162 307 10 54 14 151
14 354 0 319 6 362 70 493 48 99 113 162 229 223 103 54 149 70 241 86 104 18
165 18 256 -1z m1213 -175 c64 -35 64 -43 14 -160 -64 -149 -103 -259 -163
-460 -46 -157 -55 -177 -80 -193 -24 -13 -33 -14 -49 -5 -50 32 -75 150 -69
326 4 106 10 149 38 248 29 102 39 125 73 162 57 62 123 100 181 102 10 1 35
-8 55 -20z"/>
<path d="M1992 2064 c-107 -85 -64 -234 67 -234 33 0 49 7 79 34 34 32 37 39
37 89 0 45 -5 60 -25 82 -55 59 -107 69 -158 29z"/>
<path d="M2386 1957 c-69 -69 -11 -220 68 -177 48 25 66 124 32 175 -22 33
-68 34 -100 2z"/>
<path d="M2148 1750 c-70 -21 -158 -101 -158 -144 0 -22 4 -24 80 -28 67 -4
91 -11 165 -47 50 -25 93 -40 104 -36 32 10 43 51 31 111 -25 121 -112 177
-222 144z"/>
<path d="M3904 2136 c-54 -24 -140 -175 -197 -346 -93 -279 -97 -411 -19 -575
56 -116 125 -180 170 -156 49 26 121 225 142 392 5 44 21 121 34 172 47 175
66 425 37 479 -24 47 -102 62 -167 34z"/>
<path d="M4608 1986 c-21 -8 -49 -21 -62 -30 -16 -10 -35 -14 -54 -10 -16 3
-55 1 -86 -6 -53 -11 -60 -16 -88 -58 -48 -75 -194 -380 -223 -464 -28 -86
-27 -103 13 -183 34 -69 58 -101 98 -131 32 -25 35 -26 59 -10 14 9 42 51 64
94 54 110 155 372 182 472 15 58 31 94 49 113 l27 29 6 -54 c10 -85 89 -232
155 -285 88 -71 147 -53 196 59 15 35 32 73 38 85 6 12 11 50 12 84 l1 62 -59
31 c-54 30 -95 69 -96 90 0 23 -56 79 -100 101 -55 28 -79 30 -132 11z"/>
</g>
</svg>
